<?xml version="1.0" encoding="UTF-8" standalone="no"?>
<!-- Created with Inkscape (http://www.inkscape.org/) -->

<svg
   xmlns:dc="http://purl.org/dc/elements/1.1/"
   xmlns:cc="http://creativecommons.org/ns#"
   xmlns:rdf="http://www.w3.org/1999/02/22-rdf-syntax-ns#"
   xmlns:svg="http://www.w3.org/2000/svg"
   xmlns="http://www.w3.org/2000/svg"
   xmlns:sodipodi="http://sodipodi.sourceforge.net/DTD/sodipodi-0.dtd"
   xmlns:inkscape="http://www.inkscape.org/namespaces/inkscape"
   width="210mm"
   height="297mm"
   id="svg2"
   version="1.1"
   inkscape:version="0.48.3.1 r9886"
   sodipodi:docname="Logo.svg"
   inkscape:export-filename="C:\Users\Daniel\workspace\WKGVertretungsplan\res\drawable-ldpi\ic_launcher.png"
   inkscape:export-xdpi="8.1000004"
   inkscape:export-ydpi="8.1000004">
  <defs
     id="defs4" />
  <sodipodi:namedview
     id="base"
     pagecolor="#ffffff"
     bordercolor="#666666"
     borderopacity="1.0"
     inkscape:pageopacity="0.0"
     inkscape:pageshadow="2"
     inkscape:zoom="1.4"
     inkscape:cx="435.12025"
     inkscape:cy="862.11815"
     inkscape:document-units="px"
     inkscape:current-layer="layer1"
     showgrid="true"
     inkscape:window-width="1600"
     inkscape:window-height="838"
     inkscape:window-x="-8"
     inkscape:window-y="-8"
     inkscape:window-maximized="1"
     inkscape:snap-global="false"
     showguides="true"
     inkscape:guide-bbox="true">
    <inkscape:grid
       type="xygrid"
       id="grid3096" />
  </sodipodi:namedview>
  <metadata
     id="metadata7">
    <rdf:RDF>
      <cc:Work
         rdf:about="">
        <dc:format>image/svg+xml</dc:format>
        <dc:type
           rdf:resource="http://purl.org/dc/dcmitype/StillImage" />
        <dc:title></dc:title>
      </cc:Work>
    </rdf:RDF>
  </metadata>
  <g
     inkscape:label="Ebene 1"
     inkscape:groupmode="layer"
     id="layer1">
    <g
       id="g3031"
       transform="translate(-7.5001493,0)">
      <rect
         y="0"
         x="7.5001493"
         height="400"
         width="400"
         id="rect3015"
         style="fill:none" />
      <g
         inkscape:export-ydpi="60.290001"
         inkscape:export-xdpi="60.290001"
         transform="matrix(1.5862617,0,0,1.5862617,27.549876,-3.7019438)"
         id="g3183">
        <g
           id="g3178">
          <path
             inkscape:connector-curvature="0"
             id="path3172"
             d="m 10.879432,121.79793 c -3.5849338,1.78908 -1.1413501,6.35857 -0.8900409,9.33301 6.5253389,31.07919 16.1612209,61.8089 31.8733139,89.48832 6.555976,11.0611 14.664337,22.54269 26.942662,27.73184 7.539976,2.40035 16.227318,0.0226 21.746938,-5.64065 7.308484,-6.37009 12.475765,-14.79252 15.549785,-23.93788 1.53779,-3.84388 2.87534,-8.24679 4.71931,-11.67989 7.7005,12.8835 13.87594,27.89432 27.05315,36.30236 6.54301,4.40433 14.37351,6.78926 22.28649,5.83994 15.93916,-1.44887 28.66748,-13.14616 37.53348,-25.66419 8.68767,-12.33244 14.96415,-26.21127 19.52435,-40.54815 0.90757,-2.91389 -3.06744,-4.9806 -5.01919,-2.62008 -11.27326,10.75216 -23.76074,20.87399 -38.62255,26.27975 -8.0533,2.8761 -17.55117,3.12092 -24.89079,-1.67307 -13.7826,-8.40523 -21.6651,-23.29476 -28.27148,-37.42545 -3.75549,-7.50094 -5.88625,-15.73821 -9.89335,-23.089 -2.71772,-2.8153 -5.97019,0.79865 -7.49723,3.04624 -8.013359,10.32312 -13.965879,22.60519 -24.559329,30.74652 -7.167972,5.57509 -17.53795,5.75817 -25.111761,0.85232 -14.055498,-9.82466 -22.672888,-25.09903 -30.754642,-39.84299 -3.250318,-5.60045 -5.383671,-12.0456 -9.335787,-17.13593 -0.649814,-0.37768 -1.531474,-0.67015 -2.383329,-0.36302 z"
             style="fill:#aecf1e;fill-opacity:1" />
          <path
             inkscape:connector-curvature="0"
             id="path3174"
             d="m 201.37211,143.86345 c -8.32479,1.04158 -14.41797,7.67786 -20.31111,13.0437 -5.71676,5.51617 -12.06506,12.91752 -10.05661,21.4751 0.99849,6.16589 6.22585,12.14655 12.9268,11.34843 11.19297,-1.08098 18.84941,-10.81069 23.86485,-20.01364 2.60108,-5.40128 6.00429,-11.43746 4.51412,-17.58297 -1.58032,-3.70451 -4.77885,-7.34023 -8.83883,-8.20749 -0.69547,-0.0873 -1.39965,-0.0956 -2.09922,-0.0631 z"
             style="fill:#626262;fill-opacity:1" />
          <path
             inkscape:connector-curvature="0"
             id="path3176"
             d="M 172.21973,7.4928517 C 160.75596,9.3460714 150.85976,16.52019 143.75768,25.498294 128.2103,45.00529 119.62714,69.038052 113.44721,92.93061 c -1.7309,7.69757 -3.84109,15.40816 -4.55141,23.26413 0.10484,2.99857 4.37809,3.65837 5.55584,1.02593 8.41569,-12.58674 16.3032,-25.761651 27.68813,-35.923669 6.54797,-6.454425 15.78747,-10.711435 25.06077,-9.296439 9.68004,2.3536 16.23259,10.582712 22.6904,17.550107 5.32429,5.711852 9.81751,12.755481 16.91074,16.432051 4.75205,2.12798 9.23765,-2.74377 9.50174,-7.228899 2.05335,-18.855397 -1.79162,-38.021905 -8.55473,-55.589958 -5.24906,-12.937567 -12.62702,-26.413948 -25.71154,-32.79839 -3.04687,-1.497737 -6.33279,-2.992551 -9.81742,-2.8726213 z"
             style="fill:#626262;fill-opacity:1" />
        </g>
        <path
           style="fill:#000000"
           d="m 65.217866,248.15592 c -15.51945,-6.75771 -30.9266,-32.18522 -44.86591,-74.04537 -7.74759,-23.26627 -14.65384,-53.88171 -12.61466,-55.92089 2.80383,-2.80383 5.84693,0.80544 13.43189,15.93095 12.71441,25.35433 23.68054,39.54153 35.0457,45.33959 13.86959,7.07574 23.035554,1.46739 40.205734,-24.60059 7.39619,-11.22898 8.94241,-12.8352 11.99375,-12.45918 2.93472,0.36166 3.9483,1.77903 6.24857,8.7378 11.66955,35.30287 32.43897,59.10531 49.64381,56.89348 11.15556,-1.43415 27.7777,-10.8515 40.63486,-23.02187 6.4087,-6.06638 12.42829,-11.02977 13.37687,-11.02977 2.50834,0 1.08086,6.8992 -4.50361,21.76675 -6.02611,16.0433 -12.15143,26.32036 -22.07121,37.03103 -10.64456,11.49325 -19.60123,16.22565 -32.24484,17.03706 -7.99093,0.51284 -11.15277,0.0663 -16.83244,-2.37699 -9.5513,-4.10886 -18.89017,-14.04492 -25.95689,-27.61675 l -5.91566,-11.36117 -1.7787,5.94796 c -4.33857,14.50807 -11.95616,26.21714 -20.63816,31.7231 -7.0539,4.47346 -15.783014,5.23667 -23.159104,2.02486 z m 17.802574,-2.67001 c 5.28431,-2.21222 13.66448,-11.14119 17.35534,-18.49193 1.45085,-2.88953 4.0154,-9.44344 5.69896,-14.56423 1.68359,-5.12078 3.79403,-9.17002 4.6899,-8.9983 0.89586,0.17173 4.33821,5.86553 7.64965,12.6529 9.76316,20.01129 23.54083,31.26647 38.27387,31.26647 22.3786,0 43.25173,-21.93086 56.65624,-59.52721 l 3.7018,-10.38266 -4.38638,5.27082 c -6.04997,7.26987 -20.90346,18.26659 -31.51117,23.32919 -12.68072,6.05193 -22.51164,6.69926 -31.62296,2.0822 -15.14274,-7.6734 -28.17599,-27.77322 -39.96899,-61.63998 -0.96517,-2.77175 -4.02695,0.1405 -9.92504,9.44028 -13.88283,21.88971 -22.41095,29.13144 -34.306204,29.13144 -8.96304,0 -17.40852,-5.22556 -26.92297,-16.65833 -7.07554,-8.50212 -18.60871,-27.90818 -23.65121,-39.79621 -1.70534,-4.0205 -3.3789,-7.03171 -3.71901,-6.69161 -0.92378,0.92377 3.37413,20.94858 7.87851,36.70757 9.54761,33.40322 23.40539,63.14471 35.5173,76.22701 11.07062,11.95758 18.68296,14.79104 28.592364,10.64258 z m 96.90754,-54.51542 c -5.32436,-0.96914 -10.08381,-8.09092 -10.08381,-15.08886 0,-8.14223 2.21184,-12.08964 12.01047,-21.43489 13.93068,-13.28608 21.15903,-15.34347 28.41486,-8.08764 3.73051,3.7305 4.14034,4.91848 3.53857,10.25728 -0.86876,7.70771 -5.772,17.83868 -11.93553,24.66098 -6.86998,7.60425 -14.61816,11.02669 -21.94456,9.69313 z m 12.45009,-6.32687 c 6.60931,-4.0011 14.30161,-14.73689 16.95066,-23.65723 1.80758,-6.08678 1.80387,-7.24286 -0.0321,-10.04503 -5.52936,-8.43885 -12.05591,-6.69444 -26.24591,7.01497 -9.80664,9.47453 -12.1553,15.4569 -9.03028,23.00138 3.1308,7.55843 9.76159,8.88978 18.3577,3.68591 z m -86.94701,-56.56335 c 3.82051,-29.842759 13.12095,-62.472487 23.55658,-82.646097 18.78976,-36.3233996 42.57545,-48.1301695 62.43583,-30.99198 14.39247,12.41973 26.8278,46.90192 26.83098,74.400128 0.001,13.917389 -1.78771,17.853229 -8.36965,18.410019 -6.31823,0.53447 -10.10023,-2.46202 -20.72737,-16.422419 -13.18528,-17.320908 -23.53348,-21.472918 -37.12236,-14.894648 -12.42217,6.01346 -31.46315,30.276197 -39.70051,50.587847 -1.83858,4.53357 -4.2437,8.20925 -5.54806,8.47892 -2.00934,0.41544 -2.18193,-0.4659 -1.35544,-6.92177 z m 28.67083,-42.054557 c 9.63065,-10.29522 14.5936,-13.66057 23.41619,-15.87846 12.91066,-3.24556 20.78724,1.64337 39.83558,24.725668 7.5209,9.113639 11.76119,11.359989 15.11052,8.004999 3.76482,-3.771179 2.97419,-25.667637 -1.54666,-42.835087 -6.86214,-26.05815 -17.14265,-42.36971 -30.26059,-48.01289 -7.27341,-3.1289496 -7.33657,-3.1315096 -14.94203,-0.60758 -21.93479,7.27924 -42.38993,43.42738 -52.70868,93.146317 -1.4791,7.12671 -2.68688,13.66778 -2.68397,14.53572 0.003,0.86793 3.48545,-4.22167 7.73898,-11.31023 4.25352,-7.08855 11.47182,-16.884359 16.04066,-21.768457 z"
           id="path3065"
           inkscape:connector-curvature="0"
           inkscape:export-filename="C:\Users\Daniel\Desktop\Logo.png"
           inkscape:export-xdpi="90"
           inkscape:export-ydpi="90" />
      </g>
    </g>
  </g>
</svg>
